<?xml version="1.0" encoding="UTF-8"?>
<!DOCTYPE svg PUBLIC "-//W3C//DTD SVG 1.1//EN" "http://www.w3.org/Graphics/SVG/1.1/DTD/svg11.dtd">
<!-- Creator: CorelDRAW -->
<svg xmlns="http://www.w3.org/2000/svg" xml:space="preserve" width="205.08mm" height="205.08mm" style="shape-rendering:geometricPrecision; text-rendering:geometricPrecision; image-rendering:optimizeQuality; fill-rule:evenodd; clip-rule:evenodd"
viewBox="0 0 205.08 205.08"
 xmlns:xlink="http://www.w3.org/1999/xlink">
 <defs>
  <style type="text/css">
   <![CDATA[
    .fil0 {fill:none}
    .fil1 {fill:#1F1A17}
    .fil2 {fill:white}
    .fil4 {fill:#0578B9}
    .fil3 {fill:#058BD9}
    .fil6 {fill:#09699F}
    .fil5 {fill:#249AE0}
    .fil7 {fill:#45B537}
    .fil8 {fill:#5A5B5D}
    .fil9 {fill:#85808C}
    .fil10 {fill:#FF5600}
   ]]>
  </style>
 </defs>
 <g id="Layer_x0020_1">
  <metadata id="CorelCorpID_0Corel-Layer"/>
  <rect class="fil0" width="205.08" height="205.08"/>
  <g id="_270828192">
   <path id="_270835944" class="fil1" d="M66.0031 121.111c13.7858,0 22.2432,13.2734 22.2432,25.6218 0,12.3496 -8.456,25.6217 -22.2432,25.6217 -13.7886,0 -22.2337,-13.2747 -22.2337,-25.6217 0,-12.3457 8.4478,-25.6218 22.2337,-25.6218z"/>
   <path id="_273200552" class="fil2" d="M66.0031 125.816c-11.0279,0 -17.3971,11.2502 -17.3971,20.9172 0,9.6683 6.3678,20.9171 17.3971,20.9171 11.0292,0 17.4065,-11.2462 17.4065,-20.9171 0,-9.6697 -6.38,-20.9172 -17.4065,-20.9172z"/>
   <path id="_270828648" class="fil1" d="M95.4184 197.819l27.2348 0c1.3518,-0.0054 2.387,-0.2256 3.1791,-1.664 0.3696,-1.1358 0.6019,-2.2892 0.6019,-3.4872 0,-8.3547 -8.3623,-13.41 -16.0738,-13.41 -7.7115,0 -16.0778,5.0539 -16.0778,13.41 0,1.1953 0.235,2.3433 0.5991,3.4778l0.5367 1.6734z"/>
   <path id="_270847080" class="fil2" d="M99.1328 193.011c-0.0095,-0.1148 -0.0135,-0.2283 -0.0135,-0.3431 0,-5.586 6.3039,-8.6019 11.2411,-8.6019 4.9386,0 11.2371,3.0159 11.2371,8.6019 0,0.1148 -0.0041,0.2296 -0.0122,0.3431l-22.4525 0z"/>
   <path id="_270838104" class="fil1" d="M77.4643 197.819l-27.2347 0c-1.3519,-0.0054 -2.3871,-0.2256 -3.1792,-1.664 -0.3695,-1.1358 -0.6019,-2.2892 -0.6019,-3.4872 0,-8.3547 8.3623,-13.41 16.0738,-13.41 7.7115,0 16.0778,5.0539 16.0778,13.41 0,1.1953 -0.235,2.3433 -0.5991,3.4778l-0.5367 1.6734z"/>
   <path id="_270837168" class="fil2" d="M73.7499 193.011c0.0095,-0.1148 0.0136,-0.2283 0.0136,-0.3431 0,-5.586 -6.304,-8.6019 -11.2412,-8.6019 -4.9386,0 -11.2371,3.0159 -11.2371,8.6019 0,0.1148 0.0041,0.2296 0.0122,0.3431l22.4525 0z"/>
   <path id="_270843720" class="fil1" d="M78.5254 197.56c-17.1688,-8.8801 -22.0788,-39.8369 -22.0775,-56.9003 0,-13.5518 2.3138,-28.727 8.293,-41.0201 4.0636,-8.3561 11.301,-17.9156 21.6196,-17.9156 10.3173,0 17.5547,9.5622 21.6183,17.9142 5.9792,12.2945 8.2943,27.4697 8.2943,41.0215 0,17.0647 -4.91,48.0189 -22.0788,56.9003l-0.5258 0.2715 -14.6173 0 -0.5258 -0.2715z"/>
   <path id="_273198104" class="fil2" d="M80.2536 193.023l12.2125 0c14.7369,-8.2305 18.9703,-37.6085 18.9703,-52.3637 0,-12.8063 -2.1588,-27.3049 -7.812,-38.928 -3.1425,-6.4599 -9.1122,-15.1996 -17.2639,-15.1996 -8.1544,0 -14.1228,8.7383 -17.2652,15.1996 -5.6519,11.6231 -7.8107,26.1231 -7.8107,38.928 -0.0014,14.7538 4.2321,44.1346 18.969,52.3637z"/>
   <path id="_273190568" class="fil1" d="M85.0789 51.5723c30.7141,0 55.6222,16.922 55.6222,37.7886 0,20.8666 -24.9081,37.7886 -55.6222,37.7886 -30.7142,0 -55.6223,-16.922 -55.6223,-37.7886 0,-20.8666 24.9081,-37.7886 55.6223,-37.7886z"/>
   <path id="_270825360" class="fil2" d="M85.0789 56.0723c28.2293,0 51.1223,14.9069 51.1223,33.2886 0,18.3817 -22.893,33.2886 -51.1223,33.2886 -28.2292,0 -51.1222,-14.9069 -51.1222,-33.2886 0,-18.3817 22.893,-33.2886 51.1222,-33.2886z"/>
   <path id="_270839280" class="fil1" d="M123.514 7.2491c-5.3745,0 -9.733,4.3585 -9.733,9.733 0,5.3746 4.3585,9.733 9.733,9.733 5.3746,0 9.733,-4.3584 9.733,-9.733 0,-5.3745 -4.3584,-9.733 -9.733,-9.733z"/>
   <path id="_270815424" class="fil2" d="M123.514 11.0417c-3.2802,0 -5.9404,2.6602 -5.9404,5.9404 0,3.2803 2.6602,5.9405 5.9404,5.9405 3.2803,0 5.9405,-2.6602 5.9405,-5.9405 0,-3.2802 -2.6602,-5.9404 -5.9405,-5.9404z"/>
   <path id="_270821520" class="fil3" d="M86.0718 34.0295c31.2,0 56.502,20.1029 56.502,44.892 0,3.1303 -0.4047,6.1855 -1.1725,9.1353 -6.6447,-10.879 -28.8303,-18.8763 -55.1722,-18.8763 -26.631,0 -49.0172,8.1733 -55.3884,19.2351 -0.83,-3.0607 -1.2709,-6.2364 -1.2709,-9.4941 0,-24.7891 25.302,-44.892 56.502,-44.892z"/>
   <path id="_273201632" class="fil1" d="M92.5964 13.9662l-3.7815 22.0382 3.6815 0.6317 3.4924 -20.3536 20.5399 2.1396 0.387 -3.7152 -21.7887 -2.2696c-1.147,-0.1625 -2.2063,-0.04 -2.5306,1.5289z"/>
   <polygon id="_273190904" class="fil1" points="69.477,193.011 103.952,193.011 103.952,197.819 69.477,197.819 "/>
   <path id="_273197552" class="fil1" d="M33.6793 86.2841c-2.8066,3.7207 -5.4269,8.2211 -6.0051,12.9283 -0.3914,3.1861 0.1944,6.0648 1.5417,8.9533 1.0955,2.3488 2.5604,4.4144 3.9287,6.5985 2.4488,3.9091 2.4438,6.35 1.8985,10.2008l-3.2869 -1.8737c0.6782,-3.5523 -1.5302,-6.1955 -3.3044,-8.988 -0.9022,-1.4198 -1.768,-2.8499 -2.4984,-4.4158 -4.3504,-9.3273 -1.0224,-17.7839 4.8519,-25.5714l1.084 -1.437 2.0703 1.1528 -0.2803 2.4522z"/>
   <path id="_270846456" class="fil4" d="M59.1008 72.2486c-11.792,2.8575 -21.0959,7.5189 -26.0753,13.1603l-2.8666 0c-0.3874,-2.1182 -0.5891,-4.284 -0.5891,-6.4874 0,-23.6265 22.9843,-42.996 52.1531,-44.7609 -10.1773,7.0368 -18.3609,18.1203 -21.4416,30.588 -0.6342,2.5666 -1.021,5.0738 -1.1805,7.5z"/>
   <path id="_270831552" class="fil5" d="M105.384 36.7223c21.6927,6.2702 37.19,22.7991 37.19,42.1992 0,3.1303 -0.4047,6.1855 -1.1725,9.1353 -1.9836,-3.2477 -5.353,-6.2381 -9.8037,-8.8361 -0.5911,-15.9736 -10.3354,-33.0168 -25.2061,-41.9141 -0.3356,-0.2008 -0.6715,-0.3945 -1.0077,-0.5843z"/>
   <path id="_273197336" class="fil6" d="M142.407 83.1831c-0.0729,0.5333 -0.327,1.6983 -0.4231,2.2258l-2.55 0c-8.5149,-9.9275 -29.0503,-16.2284 -53.2049,-16.2284 -24.1546,0 -45.1589,6.7239 -52.4048,16.2284l-3.6647 0c-0.0736,-0.404 -0.1399,-0.8098 -0.2001,-1.2172 7.2453,-10.5895 29.853,-18.142 56.2696,-18.142 26.4166,0 47.4806,7.2018 56.178,17.1334z"/>
   <path id="_273200672" class="fil1" d="M122.926 173.703c-5.5485,2.441 -9.481,8.3699 -11.3798,13.9215 -0.276,0.8071 -0.4261,1.6428 -0.7925,2.4191 -0.4551,0.964 -1.1374,1.6627 -1.9985,2.2749 -5.1906,3.6905 -12.4827,0.29 -12.992,-6.0583 -0.0846,-1.0531 0.0121,-2.0248 0.458,-2.993 0.3591,-0.7797 0.9028,-1.432 1.3437,-2.1623 3.0321,-5.023 5.0464,-11.8467 3.3497,-17.666 -2.1504,-4.0191 -2.5353,-8.7595 -0.5812,-12.95l8.6236 -18.4937 19.2991 -41.3866c1.9559,-4.1948 5.8288,-6.9422 10.2939,-7.8789 5.5485,-2.441 9.4809,-8.3699 11.3797,-13.9216 0.276,-0.8071 0.4262,-1.6427 0.7926,-2.4189 0.455,-0.9641 1.1373,-1.6628 1.9985,-2.2751 5.1906,-3.6905 12.4827,-0.29 12.9919,6.0583 0.0846,1.0531 -0.0119,2.0248 -0.4578,2.9929 -0.3591,0.7798 -0.9029,1.4321 -1.3438,2.1625 -3.0323,5.0231 -5.0464,11.8467 -3.3497,17.6661 2.1504,4.0191 2.5352,8.7595 0.5812,12.9499l-27.9227 59.8804c-1.956,4.1947 -5.8289,6.9422 -10.2939,7.8788z"/>
   <path id="_270826728" class="fil2" d="M154.054 65.9885c-1.5125,1.0754 -1.3522,1.8231 -1.9476,3.5638 -2.4989,7.3063 -7.3286,13.0502 -12.8663,15.3844 -3.7933,0.7342 -7.1996,2.9991 -8.899,6.6437l-8.6238 18.4936 -10.6752 22.8931 -8.6237 18.4936c-1.6995,3.6446 -1.2451,7.7098 0.6308,11.0876 1.7715,5.7424 0.4758,13.1343 -3.5147,19.745 -0.9509,1.5751 -1.6267,1.9329 -1.4782,3.7827 0.367,4.5744 5.6266,7.027 9.3666,4.3678 1.5126,-1.0754 1.3523,-1.8231 1.9476,-3.5638 2.499,-7.3063 7.3287,-13.0502 12.8664,-15.3844 3.7933,-0.7341 7.1995,-2.9991 8.899,-6.6436l8.6237 -18.4937 10.6753 -22.8931 8.6237 -18.4936c1.6995,-3.6446 1.245,-7.7098 -0.6308,-11.0875 -1.7715,-5.7425 -0.4759,-13.1344 3.5147,-19.7451 0.9508,-1.5751 1.6267,-1.9329 1.4781,-3.7827 -0.3669,-4.5744 -5.6265,-7.027 -9.3666,-4.3678z"/>
   <path id="_273199832" class="fil7" d="M172.548 77.1385l7.0435 3.2845c1.3067,0.6093 1.8838,2.1998 1.2826,3.5347l-2.5122 5.5777c-0.6012,1.3349 -2.162,1.9285 -3.4687,1.3192l-7.0435 -3.2845c-1.3067,-0.6093 -1.8838,-2.1998 -1.2826,-3.5347l2.5122 -5.5777c0.6012,-1.3349 2.162,-1.9285 3.4687,-1.3192z"/>
   <path id="_270827496" class="fil7" d="M135.841 60.0213l7.0435 3.2845c1.3067,0.6093 1.8838,2.1998 1.2826,3.5347l-2.5122 5.5777c-0.6012,1.3349 -2.162,1.9285 -3.4687,1.3192l-7.0435 -3.2845c-1.3067,-0.6093 -1.8838,-2.1998 -1.2826,-3.5347l2.5121 -5.5777c0.6013,-1.3349 2.1621,-1.9285 3.4688,-1.3192z"/>
   <polygon id="_270824448" class="fil8" points="148.803,78.8964 156.817,82.6334 159.365,77.1695 151.35,73.4325 "/>
   <polygon id="_273198440" class="fil9" points="143.462,68.3999 168.381,80.0198 167.242,82.462 142.323,70.8421 "/>
   <path id="_273200528" class="fil7" d="M118.486 193.077l7.0435 3.2844c1.3067,0.6093 2.896,0.0291 3.5322,-1.2896l2.658 -5.5097c0.6361,-1.3186 0.0876,-2.8958 -1.2191,-3.5051l-7.0436 -3.2845c-1.3067,-0.6093 -2.896,-0.029 -3.5322,1.2896l-2.658 5.5097c-0.6361,1.3187 -0.0875,2.8958 1.2192,3.5052z"/>
   <path id="_273193568" class="fil7" d="M81.7777 175.96l7.0435 3.2845c1.3067,0.6093 2.896,0.0291 3.5322,-1.2896l2.658 -5.5097c0.6361,-1.3186 0.0876,-2.8958 -1.2191,-3.5051l-7.0436 -3.2845c-1.3067,-0.6093 -2.896,-0.029 -3.5322,1.2896l-2.658 5.5097c-0.6361,1.3186 -0.0875,2.8958 1.2192,3.5051z"/>
   <polygon id="_273198176" class="fil8" points="104.569,173.757 112.583,177.494 110.035,182.957 102.021,179.22 "/>
   <polygon id="_270826176" class="fil9" points="93.0951,176.412 118.014,188.032 119.153,185.59 94.2339,173.97 "/>
   <path id="_270815544" class="fil10" d="M67.6506 91.1894c5.0646,0 9.1719,-4.1073 9.1719,-9.1719 0,-5.0646 -4.1073,-9.1719 -9.1719,-9.1719 -5.0646,0 -9.1719,4.1073 -9.1719,9.1719 0,5.0646 4.1073,9.1719 9.1719,9.1719z"/>
   <path id="_270819144" class="fil10" d="M106.01 91.2204c5.0646,0 9.1719,-4.1073 9.1719,-9.1719 0,-5.0646 -4.1073,-9.1719 -9.1719,-9.1719 -5.0646,0 -9.1719,4.1073 -9.1719,9.1719 0,5.0646 4.1073,9.1719 9.1719,9.1719z"/>
   <path id="_119690496" class="fil1" d="M90.0579 34.7261c3.5261,0 6.3855,1.0484 6.3855,2.3413 0,1.2929 -2.8594,2.3414 -6.3855,2.3414 -3.526,0 -6.3855,-1.0485 -6.3855,-2.3414 0,-1.2929 2.8595,-2.3413 6.3855,-2.3413z"/>
   <path id="_270825792" class="fil0" d="M148.304 131.782c-4.4071,-2.0944 -10.4145,1.5251 -13.415,8.0826 -3.0004,6.5576 -1.8596,13.5741 2.5476,15.6685 4.4071,2.0944 10.4145,-1.5251 13.415,-8.0826 3.0004,-6.5576 1.8596,-13.5741 -2.5476,-15.6685z"/>
   <path id="_270819960" class="fil1" d="M148.304 131.782c-4.4071,-2.0944 -10.4145,1.5251 -13.415,8.0826 -3.0004,6.5576 -1.8596,13.5741 2.5476,15.6685 4.4071,2.0944 10.4145,-1.5251 13.415,-8.0826 3.0004,-6.5576 1.8596,-13.5741 -2.5476,-15.6685z"/>
   <path id="_273202640" class="fil2" d="M147.016 134.492c-0.2205,-0.1048 -0.4515,-0.1824 -0.6905,-0.2325 -1.4673,-0.3078 -3.0806,0.4215 -4.2543,1.2451 -1.95,1.3685 -3.4712,3.4597 -4.4545,5.6086 -1.0097,2.2068 -1.5986,4.7942 -1.3444,7.2264 0.154,1.4722 0.6817,3.2384 1.9238,4.1657 0.1652,0.1233 0.3416,0.2301 0.5279,0.3186 0.2205,0.1048 0.4515,0.1824 0.6905,0.2325 1.4673,0.3078 3.0806,-0.4215 4.2543,-1.2451 1.95,-1.3685 3.4712,-3.4597 4.4545,-5.6086 1.0097,-2.2068 1.5986,-4.7942 1.3444,-7.2264 -0.154,-1.4722 -0.6817,-3.2384 -1.9238,-4.1657 -0.1652,-0.1233 -0.3416,-0.2301 -0.5279,-0.3186z"/>
   <path id="_273202520" class="fil1" d="M96.3671 109.86c-2.8135,0.8317 -6.1882,1.2323 -9.7934,1.0528 -6.4911,-0.3231 -12.0532,-2.4433 -14.8544,-5.3038 -0.1948,-0.2272 -0.3124,-0.5225 -0.3124,-0.8452 0,-0.7178 0.5822,-1.3 1.3,-1.3 0.3398,0 0.6491,0.1304 0.8807,0.344l0.0041 -0.0039c0.7058,0.7092 1.5817,1.2953 2.2302,1.6687 3.1642,1.8223 7.2681,2.6635 10.8811,2.8434 3.094,0.1541 6.5955,-0.1385 9.6279,-1.1681 0.6466,-0.2193 1.045,-0.5308 1.6881,-0.0736 0.3312,0.2356 0.5475,0.6227 0.5475,1.0601 0,0.3133 -0.1109,0.6008 -0.2955,0.8252 -0.4508,0.5479 -1.2471,0.7064 -1.9039,0.9004z"/>
   <path id="_270846720" class="fil1" d="M63.292 48.3728c-2.3724,-1.3128 -5.9507,0.7116 -7.9906,4.5206 -2.0399,3.809 -1.7703,7.9627 0.6021,9.2755 2.3724,1.3128 5.9507,-0.7116 7.9906,-4.5206 2.0399,-3.8091 1.7702,-7.9628 -0.6021,-9.2755z"/>
   <path id="_117150880" class="fil1" d="M110.368 48.3728c2.3724,-1.3128 5.9507,0.7116 7.9906,4.5206 2.0399,3.809 1.7703,7.9627 -0.6021,9.2755 -2.3724,1.3128 -5.9507,-0.7116 -7.9906,-4.5206 -2.0399,-3.8091 -1.7702,-7.9628 0.6021,-9.2755z"/>
  </g>
 </g>
</svg>
